<svg width="456" height="219" viewBox="0 0 456 219" fill="none" xmlns="http://www.w3.org/2000/svg">
<path d="M19.75 98.625V87.5H10.25V108L49.625 107.875V77.625L20.25 60.625V45.625H40.5V56.75H49.875V36.375H10.25V69.625L39.875 86.75V98.625H19.75ZM70.375 51.75V108H79.875V51.625L70.375 51.75ZM70.375 23.5V40.125H79.875V23.5H70.375ZM109.75 98.625V93.875H100.25V108L139.625 107.875V79L110.25 72.125V61H130.5V72.125H139.875V51.625H100.25V81.125L129.875 88V98.625H109.75ZM200 108V51.625H169.875V23.5H160.375V108H169.875V60.625H190V108H200ZM260.125 51.625V131H220.5V122.125H250.125V108H220.75V51.625H230V98.75H250.125V51.625H260.125ZM310.25 74.75V60.625H280.625V51.625H320.25V108H280.875V74.75H310.25ZM310.25 83.875H290.125V98.75H310.25V83.875Z" fill="url(#paint0_linear_7_21)"/>
<path d="M170.875 218.47V162.095H140.75V133.97H131.25V218.47H140.75V171.095H160.875V218.47H170.875ZM221 185.22V171.095H191.375V162.095H231V218.47H191.625V185.22H221ZM221 194.345H200.875V209.22H221V194.345ZM281.75 171.47H261.5V209.47H290.125V218.47H251.5V162.095H291.125V182.595H281.75V171.47ZM355.125 218.47L330.125 189.345L353.875 162.22H340.25L321.125 186.095V133.97H311.625V218.47H321.125V193.72H323L340.375 218.47H355.125ZM381.25 209.095V204.345H371.75V218.47L411.125 218.345V189.47L381.75 182.595V171.47H402V182.595H411.375V162.095H371.75V191.595L401.375 198.47V209.095H381.25Z" fill="url(#paint1_linear_7_21)"/>
<defs>
<linearGradient id="paint0_linear_7_21" x1="-9.38285" y1="59.4837" x2="347.768" y2="172.455" gradientUnits="userSpaceOnUse">
<stop stop-color="#86EEAD"/>
<stop offset="0.536458" stop-color="#3D85F5" stop-opacity="0.899404"/>
<stop offset="0.9999" stop-color="#9238EB" stop-opacity="0.8125"/>
<stop offset="1" stop-color="#EAEAEA" stop-opacity="0"/>
</linearGradient>
<linearGradient id="paint1_linear_7_21" x1="137.671" y1="156.339" x2="409.565" y2="289.737" gradientUnits="userSpaceOnUse">
<stop stop-color="#84EDAF"/>
<stop offset="0.494792" stop-color="#3D85F5"/>
<stop offset="1" stop-color="#8F36EA"/>
</linearGradient>
</defs>
</svg>
