<svg width="102" height="100" viewBox="0 0 102 100" fill="none" xmlns="http://www.w3.org/2000/svg">
<g clip-path="url(#clip0_7_34)">
<path d="M42.7563 0.699303C31.7878 2.72727 23.4042 7.13287 15.37 15.3147C5.51931 25.1748 1.1878 35.8042 1.11794 50C1.04807 58.7413 1.95629 63.1469 5.30972 70.4895C13.7631 89.021 30.7399 100 51.0001 100C64.7631 100 76.0111 95.3147 85.9316 85.3147C95.922 75.3846 100.603 64.1259 100.603 50.3497C100.603 27.3427 85.5823 7.69231 63.4357 1.67832C58.6851 0.419579 47.507 -0.139862 42.7563 0.699303ZM60.8508 6.71329L65.6714 7.83217V13.9161C65.6714 19.7203 65.6015 20.0699 63.9248 20.8392C63.0166 21.2587 61.759 22.6573 61.0604 23.8462C58.3357 29.1608 62.0385 35.6643 67.7672 35.6643C73.2864 35.6643 76.1508 32.7972 76.1508 27.2028C76.1508 24.8252 75.7316 23.9161 73.7056 21.8881C71.3303 19.5105 71.1905 19.2308 71.4001 14.8951L71.6097 10.4895L75.4522 13.0769C98.0878 28.3217 102.14 59.6503 84.1152 79.6504C80.2727 83.9161 74.1248 88.8112 72.7275 88.8112C72.1686 88.8112 71.959 84.5455 71.959 74.3357V59.8601L75.8714 55.8741C79.5042 52.1678 79.9933 51.958 82.3686 52.2378C87.3289 52.9371 91.5207 49.3706 91.5207 44.5455C91.5207 36.0839 82.159 32.9371 76.9193 39.5804C75.5919 41.1888 75.3823 42.2378 75.5919 44.8951C75.9412 48.1119 75.8714 48.1818 71.5398 52.5175L67.0686 56.9231L66.9289 74.4056L66.7193 91.8182L63.9248 92.7972C62.4577 93.2867 59.5234 93.986 57.4974 94.3357L53.7946 94.8951V74.1259V53.4266L55.8905 51.8881C60.222 48.6713 59.8727 41.7483 55.1919 38.6014C50.0919 35.1049 43.5248 38.5315 42.8262 45.035C42.4768 48.1119 42.5467 48.3916 45.3412 51.049L48.2056 53.7762V74.4056V95.035L45.97 94.6853C44.7125 94.4755 41.7083 93.8462 39.333 93.2168L34.9316 92.1678V80.1399V68.1119L32.1371 65.3846C29.5522 62.8671 29.3426 62.3776 29.6919 60C30.8796 53.1469 23.7536 48.1818 17.396 51.4685C15.2303 52.5175 13.2741 56.0839 13.2741 58.7413C13.2741 63.0769 17.6056 66.7133 22.4262 66.3636C24.5919 66.1538 25.5001 66.5035 27.2467 68.1818L29.3426 70.2098V79.5105C29.3426 84.6154 29.0631 88.8112 28.7138 88.8112C28.4344 88.8112 26.059 87.2028 23.4741 85.2448C-0.558776 66.6434 0.97821 29.6504 26.5481 12.9371C30.4604 10.3497 39.9618 6.29371 41.9878 6.29371C42.3371 6.29371 42.6166 10.8392 42.6166 17.1329C42.6166 27.5525 42.5467 27.972 41.2193 27.972C40.3809 27.972 38.5645 26.7133 37.0974 25.1748C34.9316 22.8671 33.9535 22.3776 31.8577 22.3776C26.2686 22.3776 22.5659 26.3636 23.2645 31.7483C23.8234 35.8741 26.8974 38.4615 31.159 38.4615C33.8837 38.4615 34.722 38.1119 36.8179 36.014C38.7741 34.0559 39.822 33.5664 41.9179 33.5664C43.3851 33.5664 45.4111 33.2867 46.3892 32.8671L48.2056 32.1678V18.8811V5.59441H52.1179C54.2138 5.59441 58.1262 6.08392 60.8508 6.71329ZM70.5618 26.2238C71.6097 27.5525 70.8412 29.8601 69.0946 30.4196C68.3261 30.6993 67.2782 30.4895 66.7193 30.0699C65.6714 29.1608 65.322 26.5035 66.1604 25.6643C66.9988 24.8252 69.6535 25.1748 70.5618 26.2238ZM33.4645 29.2308C34.3029 30.7692 32.696 33.5664 31.0892 33.5664C30.5303 33.5664 29.622 32.8671 29.0631 32.028C27.6659 30.0699 28.7837 27.972 31.0892 27.972C31.9974 27.972 33.1152 28.5315 33.4645 29.2308ZM85.5823 42.3776C86.9097 43.7762 86.7001 45.3846 85.0933 46.4336C82.6481 47.972 79.9234 44.5455 81.7398 42.3077C82.8577 40.979 84.1851 40.979 85.5823 42.3776ZM53.096 43.7063C53.5152 44.2657 53.7248 45.3147 53.4453 46.0839C52.8864 47.8322 50.5809 48.6014 49.2535 47.5524C48.2056 46.6434 47.8563 43.986 48.6946 43.1469C49.533 42.3077 52.1878 42.6573 53.096 43.7063ZM23.6138 56.7832C25.8494 59.021 22.3563 62.8671 19.9111 60.8392C17.9549 59.2308 19.0727 55.9441 21.6577 55.9441C22.2864 55.9441 23.1248 56.2937 23.6138 56.7832Z" fill="#3D85F5"/>
</g>
<defs>
<clipPath id="clip0_7_34">
<rect width="102" height="100" fill="white"/>
</clipPath>
</defs>
</svg>
