<svg width="251" height="85" viewBox="0 0 251 85" fill="none" xmlns="http://www.w3.org/2000/svg">
<path d="M43.75 85H31.25L13.75 53H9.75L9.875 85H0.25V13.375H37.375V53H26.375L43.75 85ZM27.375 44V22.25H9.75V44H27.375ZM100 28.625V85H60.375V28.625H69.875V76H90V28.625H100ZM120.5 0.5V85H130V0.5H120.5ZM160.375 62V76H190V85H150.375V28.625H189.75V62H160.375ZM160.375 52.75H180.625V37.875H160.375V52.75ZM220 75.625V70.875H210.5V85L249.875 84.875V56L220.5 49.125V38H240.75V49.125H250.125V28.625H210.5V58.125L240.125 65V75.625H220Z" fill="url(#paint0_linear_7_243)"/>
<defs>
<linearGradient id="paint0_linear_7_243" x1="3.48578" y1="47.3932" x2="259.272" y2="113.545" gradientUnits="userSpaceOnUse">
<stop stop-color="#84EDAF"/>
<stop offset="0.494792" stop-color="#3D85F5"/>
<stop offset="1" stop-color="#8F36EA"/>
</linearGradient>
</defs>
</svg>
