<svg width="510" height="450" viewBox="0 0 510 450" fill="none" xmlns="http://www.w3.org/2000/svg">
<path d="M106.533 127V146H96.3333H86.1333V244V342H255H423.867V244V146H413.667H403.467V127V108H340.227C275.173 108 268.373 108.6 259.307 116.2C254.773 119.8 254.32 120 251.373 116.8C243.893 108.8 235.96 108 170 108H106.533V127ZM238 119C241.627 120.6 245.707 123.8 247.067 125.8C248.427 128.4 249.333 159.6 249.333 213V296.2L242.307 291.6C235.507 287.2 233.693 287 175.44 286.4L115.6 285.8V202.2C115.6 156.2 116.28 118 117.187 117.4C117.867 116.6 143.933 116 174.987 116C221 116 232.56 116.6 238 119ZM393.947 201.4L394.4 285.8L334.56 286.4C276.307 287 274.493 287.2 267.693 291.6L260.667 296.2V213C260.667 160 261.573 128.4 262.933 126C268.6 116.8 274.04 116 335.467 116.6L393.267 117L393.947 201.4ZM106.987 238.4L107.667 323L255.453 323.6L403.467 324V239V154H409.133H414.8V244V334H255H95.2V244V154H100.867H106.533L106.987 238.4ZM241.627 302.8C245.933 306.6 249.333 310.6 249.333 311.8C249.333 313.4 229.613 314 182.467 314H115.6V305V296H174.76H233.92L241.627 302.8ZM394.4 305V314H327.533C280.387 314 260.667 313.4 260.667 311.8C260.667 310.6 264.067 306.6 268.373 302.8L276.08 296H335.24H394.4V305Z" fill="#1673C8"/>
<path d="M188.813 150.4L174.76 162.8L168.187 157.4C162.293 152.4 161.387 152.2 158.667 155C155.947 157.8 156.853 159.4 165.013 166.6L174.533 175L192.667 159C206.493 146.8 210.12 142.6 208.08 140.6C206.72 139.2 205.133 138 204.227 138C203.547 138 196.52 143.6 188.813 150.4Z" fill="#1673C8"/>
<path d="M133.733 197C133.733 200.6 134.867 202 138.267 202C141.667 202 142.8 200.6 142.8 197C142.8 193.4 141.667 192 138.267 192C134.867 192 133.733 193.4 133.733 197Z" fill="#1673C8"/>
<path d="M154.133 197V202H190.4H226.667V197V192H190.4H154.133V197Z" fill="#1673C8"/>
<path d="M133.733 216C133.733 218.6 135.32 220 138.267 220C141.213 220 142.8 218.6 142.8 216C142.8 213.4 141.213 212 138.267 212C135.32 212 133.733 213.4 133.733 216Z" fill="#1673C8"/>
<path d="M154.133 216C154.133 219.8 155.72 220 190.4 220C225.08 220 226.667 219.8 226.667 216C226.667 212.2 225.08 212 190.4 212C155.72 212 154.133 212.2 154.133 216Z" fill="#1673C8"/>
<path d="M133.733 234C133.733 236.6 135.32 238 138.267 238C141.213 238 142.8 236.6 142.8 234C142.8 231.4 141.213 230 138.267 230C135.32 230 133.733 231.4 133.733 234Z" fill="#1673C8"/>
<path d="M154.133 234C154.133 237.8 155.72 238 190.4 238C225.08 238 226.667 237.8 226.667 234C226.667 230.2 225.08 230 190.4 230C155.72 230 154.133 230.2 154.133 234Z" fill="#1673C8"/>
<path d="M133.733 254C133.733 256.6 135.32 258 138.267 258C141.213 258 142.8 256.6 142.8 254C142.8 251.4 141.213 250 138.267 250C135.32 250 133.733 251.4 133.733 254Z" fill="#1673C8"/>
<path d="M154.133 254C154.133 257.8 155.72 258 190.4 258C225.08 258 226.667 257.8 226.667 254C226.667 250.2 225.08 250 190.4 250C155.72 250 154.133 250.2 154.133 254Z" fill="#1673C8"/>
<path d="M312.8 141C310.307 143.6 310.76 145 315.747 149.6L321.867 155.2L315.747 160.4C310.533 165 310.307 166.2 312.8 169C315.52 171.8 316.427 171.6 322.32 166.8L328.667 161.2L335.013 166.8C340.907 171.6 341.813 171.8 344.533 169C347.027 166.4 346.573 165.2 342.493 161.4C340 158.8 337.733 156 337.733 155C337.733 154 340 151.2 342.493 148.6C346.573 144.8 347.027 143.6 344.533 141C341.813 138.2 340.907 138.4 335.013 143.2L328.667 148.8L322.32 143.2C316.427 138.4 315.52 138.2 312.8 141Z" fill="#1673C8"/>
<path d="M281.973 195C281.066 196.8 281.52 199.2 282.88 200.4C286.28 203.4 292.853 200.6 291.946 196.6C291.04 192 283.786 190.8 281.973 195Z" fill="#1673C8"/>
<path d="M303.733 197V202H340H376.267V197V192H340H303.733V197Z" fill="#1673C8"/>
<path d="M281.067 216C281.067 219 282.653 220 286.733 220C290.813 220 292.4 219 292.4 216C292.4 213 290.813 212 286.733 212C282.653 212 281.067 213 281.067 216Z" fill="#1673C8"/>
<path d="M303.733 216C303.733 219.8 305.32 220 340 220C374.68 220 376.267 219.8 376.267 216C376.267 212.2 374.68 212 340 212C305.32 212 303.733 212.2 303.733 216Z" fill="#1673C8"/>
<path d="M281.067 234C281.067 237 282.653 238 286.733 238C290.813 238 292.4 237 292.4 234C292.4 231 290.813 230 286.733 230C282.653 230 281.067 231 281.067 234Z" fill="#1673C8"/>
<path d="M303.733 234C303.733 237.8 305.32 238 340 238C374.68 238 376.267 237.8 376.267 234C376.267 230.2 374.68 230 340 230C305.32 230 303.733 230.2 303.733 234Z" fill="#1673C8"/>
<path d="M281.067 254C281.067 257 282.653 258 286.733 258C290.813 258 292.4 257 292.4 254C292.4 251 290.813 250 286.733 250C282.653 250 281.067 251 281.067 254Z" fill="#1673C8"/>
<path d="M303.733 254C303.733 257.8 305.32 258 340 258C374.68 258 376.267 257.8 376.267 254C376.267 250.2 374.68 250 340 250C305.32 250 303.733 250.2 303.733 254Z" fill="#1673C8"/>
</svg>
