<svg width="332" height="85" viewBox="0 0 332 85" fill="none" xmlns="http://www.w3.org/2000/svg">
<path d="M25.125 85H15.625V22.5H0.125V13.375H39.875V22.5H25.125V85ZM84.125 37.875L70.375 38V85H60.375V28.625H93.625V49.125H84.125V37.875ZM141.125 51.75V37.625H111.5V28.625H151.125V85H111.75V51.75H141.125ZM141.125 60.875H121V75.75H141.125V60.875ZM201.875 38H181.625V76H210.25V85H171.625V28.625H211.25V49.125H201.875V38ZM275.25 85L250.25 55.875L274 28.75H260.375L241.25 52.625V0.5H231.75V85H241.25V60.25H243.125L260.5 85H275.25ZM301.375 75.625V70.875H291.875V85L331.25 84.875V56L301.875 49.125V38H322.125V49.125H331.5V28.625H291.875V58.125L321.5 65V75.625H301.375Z" fill="url(#paint0_linear_7_246)"/>
<defs>
<linearGradient id="paint0_linear_7_246" x1="7.51658" y1="47.3932" x2="326.034" y2="154.391" gradientUnits="userSpaceOnUse">
<stop stop-color="#84EDAF"/>
<stop offset="0.494792" stop-color="#3D85F5"/>
<stop offset="1" stop-color="#8F36EA"/>
</linearGradient>
</defs>
</svg>
